# File created by Blade
# Date/Time:  Thu Jan 22 16:04:59 2015
# Frame Rate: 120.000 fps
#------------------------------------------------------
:FULLY-SPECIFIED
:DEGREES
2672
root 3.476889 36.914706 6.099844 -2.314542 -5.817702 2.234105
RightUpLeg 10.337897 -3.364067 -9.814491
RightLeg -4.718791 -0.000000 0.000000
RightFoot -10.363514 -10.732210 20.461940
RightToeBase 11.455206 -0.000000 -0.000000
LeftUpLeg 9.481085 0.125721 6.465076
LeftLeg -1.812331 -0.000000 0.000000
LeftFoot -6.954210 6.247340 -22.939180
LeftToeBase 6.077783 -0.000000 -0.000000
Spine 11.878041 -3.510753 -4.319942
RightShoulder -12.256358 -32.845954 -24.066019
RightArm -12.731049 24.855142 58.448655
RightForeArm 57.488025 -0.000000 10.790015
RightHand 4.126251 -0.000000 -26.216709
RightHandThumb1 -24.326973 -0.000000 -32.862282
LeftShoulder -50.023872 41.965832 -5.759008
LeftArm 22.809098 -44.657460 -65.162049
LeftForeArm 5.769131 -0.000000 3.393112
LeftHand -34.047019 -0.000000 22.027029
LeftHandThumb1 -26.253704 0.000000 33.147579
Head 29.100861 10.131981 4.243277
2673
root 3.479260 36.914148 6.104070 -2.315691 -5.888291 2.223007
RightUpLeg 10.317305 -3.314917 -9.806966
RightLeg -4.698185 -0.000000 0.000000
RightFoot -10.367478 -10.717553 20.476508
RightToeBase 11.443440 -0.000000 -0.000000
LeftUpLeg 9.504077 0.181091 6.470924
LeftLeg -1.807983 -0.000000 0.000000
LeftFoot -6.985550 6.265971 -22.925906
LeftToeBase 6.094569 -0.000000 -0.000000
Spine 11.876232 -3.485097 -4.323309
RightShoulder -12.294857 -32.913894 -24.012251
RightArm -12.755164 24.866987 58.450622
RightForeArm 57.429363 -0.000000 10.764989
RightHand 4.254854 -0.000000 -26.348424
RightHandThumb1 -24.326973 -0.000000 -32.862282
LeftShoulder -50.077444 41.967383 -5.810509
LeftArm 22.696542 -44.636087 -65.147607
LeftForeArm 5.730119 -0.000000 3.271718
LeftHand -34.187855 0.000000 22.271424
LeftHandThumb1 -26.253704 0.000000 33.147579
Head 29.165615 10.169269 4.306526
2674
root 3.483027 36.912739 6.111948 -2.351105 -5.954044 2.218474
RightUpLeg 10.344499 -3.286309 -9.815629
RightLeg -4.695835 -0.000000 0.000000
RightFoot -10.362316 -10.670206 20.485261
RightToeBase 11.479007 -0.000000 -0.000000
LeftUpLeg 9.571038 0.214278 6.466749
LeftLeg -1.814471 -0.000000 0.000000
LeftFoot -7.022114 6.278068 -22.943997
LeftToeBase 6.122607 -0.000000 -0.000000
Spine 11.907518 -3.453334 -4.331974
RightShoulder -12.333185 -32.997234 -23.958471
RightArm -12.728918 24.810910 58.467484
RightForeArm 57.519652 -0.000000 10.736563
RightHand 4.302298 -0.000000 -26.422465
RightHandThumb1 -24.326973 -0.000000 -32.862282
LeftShoulder -50.154917 41.995392 -5.888933
LeftArm 22.691881 -44.659518 -65.236829
LeftForeArm 5.613945 -0.000000 3.225821
LeftHand -34.212953 -0.000000 22.233754
LeftHandThumb1 -26.253704 0.000000 33.147579
Head 29.242074 10.190728 4.353669
2675
root 3.486784 36.911854 6.117318 -2.373344 -6.002704 2.214428
RightUpLeg 10.350547 -3.267107 -9.822426
RightLeg -4.673599 -0.000000 0.000000
RightFoot -10.360429 -10.633546 20.472624
RightToeBase 11.483292 -0.000000 -0.000000
LeftUpLeg 9.604561 0.246929 6.464193
LeftLeg -1.799311 -0.000000 0.000000
LeftFoot -7.046538 6.290617 -22.910125
LeftToeBase 6.051451 -0.000000 -0.000000
Spine 11.925022 -3.444861 -4.343400
RightShoulder -12.345496 -33.065112 -23.929365
RightArm -12.710239 24.758508 58.502667
RightForeArm 57.608637 -0.000000 10.760213
RightHand 4.269385 -0.000000 -26.658098
RightHandThumb1 -24.326973 -0.000000 -32.862282
LeftShoulder -50.214351 41.988472 -5.948359
LeftArm 22.673340 -44.690720 -65.282970
LeftForeArm 5.587014 -0.000000 3.117440
LeftHand -34.228368 -0.000000 22.494815
LeftHandThumb1 -26.253704 0.000000 33.147579
Head 29.345196 10.221919 4.395674
2676
root 3.490524 36.911088 6.121266 -2.404625 -6.060850 2.206007
RightUpLeg 10.357236 -3.214610 -9.820577
RightLeg -4.643908 -0.000000 0.000000
RightFoot -10.367569 -10.617912 20.469443
RightToeBase 11.430593 -0.000000 -0.000000
LeftUpLeg 9.640124 0.279338 6.467615
LeftLeg -1.765916 -0.000000 0.000000
LeftFoot -7.092549 6.283265 -22.912846
LeftToeBase 6.061023 -0.000000 -0.000000
Spine 11.956407 -3.408299 -4.346128
RightShoulder -12.348490 -33.008025 -23.907613
RightArm -12.806873 24.744941 58.447047
RightForeArm 57.529374 -0.000000 10.758699
RightHand 4.251021 -0.000000 -26.611905
RightHandThumb1 -24.326973 -0.000000 -32.862282
LeftShoulder -50.260506 41.995249 -5.992738
LeftArm 22.720949 -44.729358 -65.389953
LeftForeArm 5.610379 -0.000000 3.047492
LeftHand -34.314397 -0.000000 22.611290
LeftHandThumb1 -26.253704 0.000000 33.147579
Head 29.454181 10.249238 4.451148
2677
root 3.494009 36.910744 6.126002 -2.445870 -6.096583 2.197865
RightUpLeg 10.387347 -3.153826 -9.817814
RightLeg -4.626283 -0.000000 0.000000
RightFoot -10.379530 -10.652692 20.491444
RightToeBase 11.440587 -0.000000 -0.000000
LeftUpLeg 9.692219 0.268097 6.464065
LeftLeg -1.756220 -0.000000 0.000000
LeftFoot -7.122429 6.318740 -22.904408
LeftToeBase 6.043414 -0.000000 -0.000000
Spine 11.995798 -3.398684 -4.345078
RightShoulder -12.355033 -33.035399 -23.887937
RightArm -12.798382 24.800319 58.442226
RightForeArm 57.413311 -0.000000 10.779944
RightHand 4.209395 -0.000000 -26.659764
RightHandThumb1 -24.326973 -0.000000 -32.862282
LeftShoulder -50.303160 41.998665 -6.057466
LeftArm 22.777268 -44.771720 -65.470306
LeftForeArm 5.596325 -0.000000 3.015202
LeftHand -34.656691 -0.000000 22.884931
LeftHandThumb1 -26.253704 0.000000 33.147579
Head 29.579870 10.278864 4.465770
2678
root 3.498808 36.910379 6.130782 -2.495086 -6.109994 2.200800
RightUpLeg 10.425680 -3.132157 -9.829382
RightLeg -4.603248 -0.000000 0.000000
RightFoot -10.397694 -10.630190 20.488994
RightToeBase 11.471834 -0.000000 -0.000000
LeftUpLeg 9.729109 0.228763 6.448871
LeftLeg -1.708544 -0.000000 0.000000
LeftFoot -7.169912 6.322247 -22.932629
LeftToeBase 6.046933 -0.000000 -0.000000
Spine 12.045102 -3.403074 -4.359322
RightShoulder -12.357173 -33.009589 -23.854243
RightArm -12.829704 24.844210 58.394481
RightForeArm 57.355110 0.000000 10.826787
RightHand 4.185574 0.000000 -26.788580
RightHandThumb1 -24.326973 -0.000000 -32.862282
LeftShoulder -50.324969 42.008961 -6.093591
LeftArm 22.894114 -44.855447 -65.628752
LeftForeArm 5.728341 -0.000000 3.061195
LeftHand -36.713448 -0.000000 23.311118
LeftHandThumb1 -26.253704 0.000000 33.147579
Head 29.697152 10.304197 4.479811
